<?xml version="1.0" encoding="UTF-8" standalone="no"?>
<!-- Created with Inkscape (http://www.inkscape.org/) -->

<svg
   version="1.1"
   id="svg15678"
   width="31.975328"
   height="37.00848"
   viewBox="0 0 31.975328 37.00848"
   xmlns="http://www.w3.org/2000/svg"
   xmlns:svg="http://www.w3.org/2000/svg">
  <defs
     id="defs15682" />
  <g
     id="g15684">
    <path
       style="fill:#000000;stroke-width:0.074017"
       d="m 14.807697,31.374182 c -0.666947,-0.07728 -1.532752,-0.307685 -1.952668,-0.51965 -0.483894,-0.244259 -1.508415,-0.924531 -2.178082,-1.446225 l -0.61064,-0.475711 v -3.06725 -3.06725 l 1.184224,-0.592984 c 2.19947,-1.101354 4.003948,-1.806252 5.218243,-2.038442 1.632208,-0.312102 3.817202,-0.41733 5.252205,-0.252942 1.425885,0.163343 2.392386,0.427759 3.333331,0.911936 1.296152,0.666955 3.737495,2.45601 3.739262,2.740192 5.18e-4,0.08612 -0.03642,1.272385 -0.08213,2.636148 -0.08018,2.392213 -0.08868,2.484198 -0.241528,2.610983 -0.313787,0.260289 -2.023754,1.299328 -2.684237,1.631043 -1.215282,0.610351 -2.162394,0.827589 -4.098707,0.940115 -1.475136,0.08573 -6.111358,0.07901 -6.879273,-0.01 z m 7.534354,-1.033197 c 1.635022,-0.137068 2.66171,-0.499459 4.318505,-1.524311 1.105941,-0.684107 1.001915,-0.43263 1.060535,-2.563786 l 0.05052,-1.836548 -0.581255,0.467663 c -1.450141,1.166747 -2.322521,1.54874 -4.393128,1.923639 -1.056449,0.191279 -4.502103,0.279139 -5.496012,0.140143 -1.21641,-0.170112 -4.669551,-0.948484 -4.934634,-1.112315 -0.0889,-0.05495 -0.08652,-0.126311 0.01624,-0.48757 0.06622,-0.232763 0.131349,-0.434162 0.144742,-0.447555 0.01339,-0.01339 0.331497,0.05959 0.706899,0.162194 l 0.682549,0.186544 4.289469,-2.094958 c 2.918903,-1.42558 4.248125,-2.110252 4.160075,-2.142824 -0.325627,-0.120457 -2.109994,-0.228031 -3.011121,-0.181531 -2.647081,0.136594 -4.073801,0.531955 -6.977063,1.933425 l -1.277757,0.616803 0.01947,2.574654 0.01947,2.574654 0.74017,0.536698 c 1.291041,0.936135 2.081077,1.249059 3.402391,1.34765 0.946535,0.07063 5.967065,0.01895 7.059937,-0.07267 z m 0.002,-4.470178 c 2.141621,-0.340206 3.045548,-0.749736 4.665077,-2.113546 l 0.310228,-0.261244 -0.614189,-0.444512 C 25.55749,22.220883 24.282084,21.464918 24.0284,21.464918 c -0.178041,0 -8.492181,4.093438 -8.430978,4.150962 0.04768,0.04481 1.308375,0.277993 2.129642,0.393903 0.551814,0.07788 3.883105,-0.02239 4.616988,-0.138976 z M 6.8465691,31.185266 C 6.1353923,31.096516 5.5289184,30.907303 5.0126866,30.613116 3.616408,29.817412 2.6712205,28.800544 2.2979464,27.692497 2.0239335,26.879102 1.9641632,24.884378 1.9627456,16.505782 L 1.9614495,8.8450267 2.1271963,8.318023 C 2.6210977,6.7476294 4.2809533,5.4297907 6.3246229,4.9854858 7.1389893,4.8084381 8.6396692,4.7746995 9.489492,4.9143326 c 2.240719,0.3681689 4.074427,1.7118692 4.455023,3.2645415 0.08164,0.3330386 0.128819,1.3603762 0.188671,4.1079409 0.0439,2.015112 0.101226,4.238397 0.127401,4.940632 l 0.04759,1.276793 H 9.9297242 5.5512722 v -0.48111 -0.48111 l 2.2390132,-1.49e-4 c 1.2314572,-7.4e-5 2.9673986,-0.02218 3.8576476,-0.04906 l 1.618634,-0.04888 -0.05335,-2.004911 c -0.02934,-1.102735 -0.07864,-3.104097 -0.10954,-4.447504 C 13.03597,8.0483096 13.039189,8.0623714 12.256397,7.2906706 11.678168,6.7206347 10.829645,6.2416064 10.029298,6.0333752 8.9060814,5.741141 7.3464246,5.74274 6.1911149,6.0373099 4.7711757,6.3993526 3.3943053,7.5345579 3.0690926,8.6113618 2.8220596,9.429307 2.8479765,23.017637 3.1031464,26.465825 c 0.049644,0.670855 0.098479,0.895119 0.2735543,1.256241 0.3953284,0.81543 1.7638253,1.983292 2.6809783,2.287921 0.5037988,0.167335 1.830929,0.26407 2.7752604,0.202291 0.4411536,-0.02886 0.8133998,-0.03419 0.8272128,-0.01184 0.013813,0.02235 0.047947,0.24245 0.075853,0.489111 l 0.050739,0.448474 -0.5745478,0.04857 c -0.5858235,0.04952 -1.9643853,0.04875 -2.365628,-0.0013 z M 4.6826948,10.750963 C 4.7388928,9.5274438 4.906496,9.1316085 5.5831476,8.6243274 5.9200777,8.3717334 6.9013617,7.8671887 7.2940254,7.7446491 c 0.1326287,-0.04139 0.1704558,0.011402 0.305254,0.4260076 L 7.7531451,8.6439086 7.2628486,8.8370011 C 6.7023525,9.0577396 5.9883079,9.4980014 5.8615162,9.7010277 5.7394326,9.8965146 5.6028252,10.851998 5.6443226,11.220162 c 0.03466,0.307504 0.032519,0.310768 -0.2325808,0.354616 -0.1471596,0.02434 -0.3803848,0.04462 -0.5182782,0.04507 l -0.2507153,8.15e-4 z"
       id="path16567" />
  </g>
</svg>
