<?xml version="1.0" encoding="UTF-8" standalone="no"?>
<!-- Created with Inkscape (http://www.inkscape.org/) -->

<svg
   version="1.1"
   id="svg15932"
   width="31.975328"
   height="37.00848"
   viewBox="0 0 31.975328 37.00848"
   xmlns="http://www.w3.org/2000/svg"
   xmlns:svg="http://www.w3.org/2000/svg">
  <defs
     id="defs15936" />
  <g
     id="g15938">
    <path
       style="fill:#000000;stroke-width:0.074017"
       d="m 21.94603,32.966993 c -1.595662,-0.354334 -3.300373,-1.533988 -3.881915,-2.686272 -0.784157,-1.553754 -0.743628,-3.754208 0.105551,-5.730668 0.311442,-0.72488 0.561168,-1.137279 1.383194,-2.284211 0.668677,-0.932973 2.982009,-3.961498 3.382129,-4.427755 l 0.222313,-0.259059 0.787309,0.777178 c 2.679043,2.64457 4.516919,5.162114 5.0819,6.961246 0.151369,0.482017 0.173181,0.700634 0.173181,1.735747 0,1.324607 -0.09337,1.820236 -0.517634,2.747649 -0.696096,1.521631 -1.864857,2.573748 -3.405265,3.065416 -0.690925,0.22053 -2.53951,0.276435 -3.330763,0.100729 z m 3.134708,-1.088886 c 0.767595,-0.266943 1.289744,-0.604292 1.822555,-1.177509 1.422395,-1.530267 1.77364,-3.972989 0.848966,-5.90412 -0.416191,-0.869193 -1.240791,-2.084016 -2.163516,-3.187348 -0.809047,-0.967405 -2.249713,-2.512754 -2.342538,-2.512754 -0.06952,0 -1.939236,2.435086 -2.943227,3.833211 -1.235944,1.721134 -1.696871,2.867701 -1.776738,4.41968 -0.095,1.845963 0.37999,2.91036 1.686274,3.778776 1.141896,0.759131 2.024389,1.006864 3.437136,0.964871 0.71446,-0.02124 0.99599,-0.0635 1.431088,-0.214807 z m -2.394539,-1.1226 c -1.777291,-0.33001 -2.398088,-1.131689 -2.4944,-3.221198 l -0.02218,-0.48111 h 0.481111 0.48111 l 0.04638,0.518119 c 0.06985,0.780365 0.20267,1.332515 0.386149,1.605303 0.225212,0.334837 0.816921,0.559195 1.722421,0.653091 0.39655,0.04112 0.727075,0.08272 0.734501,0.09246 0.0074,0.0097 0.03431,0.225865 0.05973,0.480298 l 0.04623,0.462606 -0.461472,-0.0067 c -0.253809,-0.0037 -0.694625,-0.04997 -0.97959,-0.102882 z M 2.662193,32.845026 C 2.3983866,32.711834 2.288431,32.59185 2.1130445,32.245794 L 1.8937486,31.813101 1.8299299,29.026057 c -0.0351,-1.532875 -0.0505,-3.936158 -0.034222,-5.34063 0.027437,-2.367257 0.040535,-2.578163 0.1795065,-2.890422 C 2.248363,20.18126 2.8801029,19.600211 3.9908676,18.941087 L 4.5399464,18.615265 4.0463803,18.593379 3.5528142,18.571493 V 16.32089 14.070286 l 0.462606,-0.02204 0.4626061,-0.02204 0.063953,-1.054742 0.063953,-1.054741 H 4.956206 c 0.1926505,0 0.6551593,-0.02164 1.0277971,-0.04809 l 0.6775236,-0.04809 V 10.684367 9.5481878 l 0.3145721,-0.00113 C 7.1491134,9.5464632 7.3281934,9.5214514 7.3740542,9.4915427 7.4291625,9.455603 7.4708822,8.9226328 7.4970864,7.9198155 7.5424321,6.1844382 7.6214001,5.7644784 8.0816383,4.8111031 8.4701733,4.006259 9.2408617,3.1992932 9.8019287,3.0098346 c 0.9348643,-0.3156808 2.3943233,0.046079 3.0086543,0.7457639 0.399376,0.4548646 0.840904,1.4608492 1.065353,2.4273233 0.112135,0.482849 0.297258,1.8072823 0.37727,2.6991141 0.02739,0.30532 0.08745,0.579598 0.133457,0.6095068 0.04601,0.029909 0.204775,0.054889 0.352813,0.055513 0.302066,0.00127 0.298892,-0.00788 0.398416,1.1483953 0.02453,0.284966 0.06187,0.609715 0.08298,0.721666 l 0.03838,0.203546 h 0.808306 0.808306 l 0.008,0.573632 c 0.0044,0.315497 0.0294,0.773477 0.05551,1.017733 l 0.04748,0.444102 0.598629,-0.02552 0.598629,-0.02552 0.04902,1.684359 c 0.02696,0.926397 0.04902,2.045359 0.04902,2.486583 v 0.802225 h -0.814187 c -0.447802,0 -0.814186,0.02523 -0.814186,0.05606 0,0.03084 0.499077,0.449322 1.109059,0.92997 l 1.10906,0.873906 -0.300749,0.39834 -0.30075,0.39834 -1.455958,-1.155053 C 16.013663,19.444542 15.26433,18.846802 15.149256,18.75151 l -0.209225,-0.173257 h -4.096095 c -2.2528518,0 -4.1071967,0.02649 -4.1207666,0.05887 -0.01357,0.03238 -0.4814075,0.279766 -1.0396394,0.549751 -1.5247064,0.737414 -2.5067564,1.418434 -2.7646897,1.917222 -0.075057,0.145143 -0.1062337,0.467177 -0.1062337,1.097312 v 0.89188 l 0.2035466,4.44e-4 c 0.1119507,2.22e-4 3.3960485,-0.08529 7.2979948,-0.190054 3.901947,-0.104768 7.103298,-0.179904 7.114115,-0.166969 0.01082,0.01293 0.03728,0.227396 0.05881,0.476582 l 0.03914,0.453068 -0.602755,0.04335 c -0.331516,0.02384 -3.640105,0.118717 -7.3524205,0.210827 -5.9076952,0.146582 -6.752972,0.181605 -6.7761874,0.280757 -0.014588,0.06231 -0.00823,1.141148 0.01412,2.397426 l 0.040644,2.28413 6.9020818,-0.01191 6.9020821,-0.01191 v 0.472771 0.472771 l -4.342187,0.04914 c -2.3882024,0.02703 -5.507183,0.04914 -6.9310678,0.04914 H 2.7916809 l 0.0411,0.795682 c 0.022605,0.437625 0.078997,0.899502 0.1253157,1.026392 l 0.084215,0.230709 0.7918739,0.05311 c 0.4355307,0.02921 3.8145417,0.02872 7.5089135,-0.0011 l 6.717039,-0.05419 v 0.480047 0.480047 l -2.609098,0.04889 c -1.435004,0.02689 -4.825325,0.04894 -7.5340464,0.049 l -4.9249489,1.1e-4 z M 6.069391,16.325108 c 0,-0.71001 -0.029128,-1.308931 -0.064728,-1.330933 -0.0356,-0.022 -0.3853304,-0.01894 -0.7771781,0.0068 l -0.7124505,0.0468 v 1.284133 1.284133 H 5.2922129 6.069391 Z m 2.5905937,-0.0887 v -1.379624 l -0.3885891,0.04668 c -0.213724,0.02567 -0.5801079,0.04697 -0.8141866,0.04732 l -0.4255975,6.43e-4 v 1.28296 c 0,0.705629 0.022205,1.305167 0.049345,1.332306 0.02714,0.02714 0.3935233,0.04934 0.8141869,0.04934 h 0.7648417 z m 2.5905933,-0.03009 v -1.409712 l -0.758673,0.05035 c -0.417271,0.02769 -0.7636246,0.0542 -0.7696748,0.0589 -0.00605,0.0047 -0.035284,0.616415 -0.064964,1.35936 l -0.053963,1.350809 h 0.8236378 0.823637 z m 2.543942,1.243172 c 0.02455,-0.0916 0.04509,-0.74584 0.04564,-1.453875 l 0.001,-1.287336 -0.454959,0.04755 c -0.250228,0.02615 -0.616612,0.04755 -0.814187,0.04755 h -0.359227 v 1.406322 1.406322 h 0.768545 c 0.734442,0 0.770526,-0.0074 0.813176,-0.166538 z m 3.451432,-1.313801 V 14.65535 h -0.432587 c -0.237923,0 -0.787499,0.02172 -1.22128,0.04826 l -0.788692,0.04826 v 1.432083 1.432082 h 1.221279 1.22128 z M 10.949261,13.83996 c 2.744993,-0.08177 4.998549,-0.156581 5.007903,-0.166253 0.0094,-0.0097 -0.0012,-0.242412 -0.02339,-0.5172 l -0.0404,-0.499615 -0.859566,2.96e-4 c -0.987647,2.96e-4 -9.4288346,0.216325 -9.4511256,0.241861 -0.00813,0.0093 -0.027937,0.258409 -0.044021,0.553552 l -0.029243,0.536623 0.2244704,-2.96e-4 c 0.1234587,-1.48e-4 2.4703738,-0.06719 5.2153662,-0.148952 z m 1.022983,-2.117707 2.239013,-0.04832 -0.0055,-0.267195 c -0.003,-0.146957 -0.028,-0.417079 -0.05551,-0.600271 L 14.100233,10.4734 13.73052,10.436391 13.360806,10.399383 13.271623,9.2246649 C 13.082315,6.7311599 12.728029,5.2925099 12.100748,4.4701016 11.793697,4.0675379 10.785134,3.7692004 10.233462,3.9177501 9.6003495,4.0882296 8.7924669,5.2713705 8.5873666,6.3284501 8.4680624,6.9433402 8.4131492,8.8520494 8.4909395,9.6801327 8.5635132,10.452687 8.5920623,10.411342 7.9568235,10.453671 l -0.2960678,0.01973 -0.021415,0.694756 -0.021415,0.694756 1.0576528,-0.04617 c 0.581709,-0.02539 2.0652095,-0.06791 3.2966665,-0.09448 z M 8.9855416,7.0729956 C 9.0529763,6.3288331 9.2013684,5.8540607 9.5999705,5.1071702 9.7846399,4.761141 9.9469539,4.4656524 9.9606677,4.4505292 9.9821748,4.4268128 10.41376,4.6664406 10.719969,4.8721143 10.797503,4.9241917 10.747462,5.070668 10.485188,5.559357 10.130814,6.2196523 10.034874,6.517073 9.9565591,7.1981494 L 9.9076213,7.6237469 H 9.4216274 8.9356342 Z M 4.7370856,27.867385 v -0.48111 h 1.6164706 c 0.8890589,0 2.2713259,-0.02193 3.0717039,-0.04874 l 1.4552339,-0.04874 v 0.529847 0.529848 H 7.8087896 4.7370856 Z M 4.3670008,25.276792 v -0.48111 l 1.6838859,-1.48e-4 c 0.9261373,-7.4e-5 2.408327,-0.02206 3.2937549,-0.0488 l 1.6098694,-0.04861 v 0.529905 0.529906 H 7.6607557 4.3670008 v -0.48111 z"
       id="path16602" />
  </g>
</svg>
