<?xml version="1.0" encoding="UTF-8" standalone="no"?>
<!-- Created with Inkscape (http://www.inkscape.org/) -->

<svg
   version="1.1"
   id="svg16059"
   width="31.975328"
   height="37.00848"
   viewBox="0 0 31.975328 37.00848"
   sodipodi:docname="category-protection.svg"
   inkscape:version="1.2.1 (9c6d41e410, 2022-07-14)"
   xmlns:inkscape="http://www.inkscape.org/namespaces/inkscape"
   xmlns:sodipodi="http://sodipodi.sourceforge.net/DTD/sodipodi-0.dtd"
   xmlns="http://www.w3.org/2000/svg"
   xmlns:svg="http://www.w3.org/2000/svg">
  <defs
     id="defs16063" />
  <sodipodi:namedview
     id="namedview16061"
     pagecolor="#ffffff"
     bordercolor="#000000"
     borderopacity="0.25"
     inkscape:showpageshadow="2"
     inkscape:pageopacity="0.0"
     inkscape:pagecheckerboard="0"
     inkscape:deskcolor="#d1d1d1"
     showgrid="false"
     inkscape:zoom="17.752688"
     inkscape:cx="8.9282254"
     inkscape:cy="18.532405"
     inkscape:window-width="1600"
     inkscape:window-height="837"
     inkscape:window-x="-8"
     inkscape:window-y="-8"
     inkscape:window-maximized="1"
     inkscape:current-layer="g16065" />
  <g
     inkscape:groupmode="layer"
     inkscape:label="Image"
     id="g16065">
    <path
       style="fill:#000000;stroke-width:0.074017"
       d="M 15.395528,31.4809 C 11.73203,31.104253 10.852764,30.928615 9.669237,30.337046 8.5847738,29.794994 7.9049169,29.303104 7.0281211,28.426146 6.1441797,27.542042 5.5715017,26.730587 4.9085808,25.422866 3.9089391,23.450906 3.613342,22.602335 3.5154381,21.423567 l -0.049541,-0.596479 -0.702884,-0.08878 C 1.8953487,20.628724 1.4000664,20.424514 1.1082155,20.056022 0.78954598,19.653669 0.47176169,18.934109 0.24052287,18.091304 L 0.03904709,17.356977 0.01698243,12.53062 -0.00508223,7.7042618 0.25236318,7.1617474 C 0.80902835,5.9886872 1.5955558,5.0149827 2.1855927,4.7684495 2.5757295,4.60544 3.1325549,4.6350854 3.5367706,4.8403862 4.2116637,5.183164 5.0928183,6.2678062 5.7378197,7.5497299 L 6.0171325,8.1048571 5.8997123,9.8795803 C 5.8351311,10.855678 5.791385,11.663397 5.8024987,11.674511 5.8136124,11.685624 6.486074,11.399569 7.2968578,11.038832 9.8039213,9.9233791 10.855252,9.5672805 12.768745,9.1854374 c 1.631907,-0.325651 2.478283,-0.4025561 3.919507,-0.3561422 1.009988,0.032527 1.41164,0.078362 2.018661,0.2303622 0.908017,0.2273705 2.176165,0.7163606 3.38715,1.3060626 0.832706,0.405494 3.261027,1.818098 4.121331,2.39746 0.212045,0.142799 0.39443,0.250744 0.405297,0.239876 0.01087,-0.01087 -0.06253,-0.318026 -0.163117,-0.682573 -0.640915,-2.3228967 -0.744331,-3.6668101 -0.375381,-4.8781265 0.389389,-1.2784186 1.049239,-2.2746787 1.73998,-2.6270684 0.365131,-0.1862758 0.957495,-0.2004245 1.313732,-0.031379 0.417967,0.1983384 0.962995,0.7421575 1.387636,1.3845576 0.697722,1.055521 0.839144,1.4063022 0.963409,2.389622 0.268919,2.1279913 0.303285,2.7138743 0.301211,5.1350493 -0.0019,2.271875 -0.01569,2.541458 -0.164148,3.218455 -0.268501,1.224456 -1.100941,2.732467 -2.479217,4.491239 -0.498297,0.635861 -0.576907,0.780417 -0.70948,1.304676 -0.293379,1.160156 -0.829907,1.938579 -2.362051,3.42699 -1.046573,1.016699 -3.451769,3.079644 -4.096148,3.513279 -0.468909,0.315552 -1.598826,0.751974 -3.028774,1.169841 -2.311632,0.675516 -2.710151,0.749917 -3.552815,0.663282 z m 2.499177,-1.401091 c 1.395275,-0.384117 2.774887,-0.84852 3.265033,-1.099068 0.551277,-0.281796 3.12924,-2.486642 4.413123,-3.774396 1.552278,-1.556957 1.85971,-2.07864 2.031271,-3.446865 0.13509,-1.07737 0.07842,-3.372831 -0.116669,-4.725924 l -0.04663,-0.323422 -1.156035,-0.758555 c -2.211623,-1.451198 -4.117209,-2.531674 -5.291521,-3.000315 -0.805408,-0.321419 -1.863991,-0.545757 -3.858347,-0.817671 -1.874946,-0.255634 -2.809942,-0.262734 -4.14495,-0.03148 -1.535036,0.265908 -3.3596744,0.909146 -5.234128,1.845181 -0.9954961,0.497115 -2.7221846,1.50154 -2.7234396,1.584241 -4.071e-4,0.02697 -0.1491497,0.9983 -0.3305342,2.158515 -0.1947188,1.245508 -0.3005163,2.119589 -0.2583153,2.134156 0.040715,0.01405 0.071475,0.414336 0.071475,0.930122 0,1.174464 0.080135,1.57512 0.5209581,2.604651 0.9160856,2.139497 1.6387927,3.309903 2.6943203,4.363386 1.0770467,1.074958 2.3944727,1.88309 3.5527847,2.179336 0.826318,0.211336 2.884223,0.48371 4.630549,0.612877 0.30253,0.02238 0.391194,0.0029 1.981058,-0.434772 z m -4.053533,-1.325877 c -0.887502,-0.12297 -1.733318,-0.419807 -3.168579,-1.112005 l -1.1331121,-0.546478 0.2431368,-0.438906 0.2431373,-0.438905 0.852967,0.426318 c 2.068891,1.034046 2.814373,1.219355 4.700778,1.168502 2.002689,-0.05399 3.027862,-0.355337 4.752276,-1.396932 l 0.639064,-0.386014 0.156393,0.196136 c 0.08602,0.107874 0.213438,0.292704 0.283159,0.410733 l 0.126766,0.214598 -0.693736,0.413989 c -1.157055,0.690475 -1.982099,1.056215 -2.838533,1.258312 -1.455477,0.343457 -2.808603,0.418414 -4.163717,0.230652 z M 13.138011,24.674239 C 11.802007,24.515642 10.10431,24.149665 9.4218746,23.873141 8.8589756,23.645053 7.2344604,22.765827 6.875123,22.494779 l -0.1563929,-0.117968 0.2489619,-0.3806 c 0.1369291,-0.209329 0.2762731,-0.381197 0.3096534,-0.381929 0.03338,-7.4e-4 0.2998414,0.14304 0.5921359,0.319491 1.5180879,0.916435 2.0914744,1.155926 3.4108297,1.424633 4.085044,0.831983 7.73514,0.534778 10.887589,-0.886507 l 1.203858,-0.54276 0.207041,0.433181 c 0.113872,0.238249 0.192775,0.447268 0.17534,0.464487 -0.102654,0.10137 -2.134133,0.981819 -2.672982,1.158477 -0.857475,0.281117 -2.23847,0.567445 -3.382073,0.70122 -1.158761,0.135547 -3.365913,0.129612 -4.561073,-0.01226 z m 9.289129,-6.699183 c -0.896662,-0.569793 -1.822672,-1.024132 -2.374234,-1.164896 -1.402655,-0.357973 -3.152259,-0.381888 -6.137717,-0.0839 -1.792823,0.17895 -2.655806,0.364821 -4.1666702,0.897429 -0.5654607,0.199336 -1.0765352,0.362428 -1.1357207,0.362428 -0.085651,0 -0.1031448,-0.101725 -0.085725,-0.498477 l 0.021886,-0.498479 1.0362375,-0.35834 c 1.5201344,-0.525677 2.2622054,-0.687284 4.0339244,-0.878502 1.253651,-0.135304 2.007616,-0.171753 3.552814,-0.171753 1.78202,0 2.032545,0.01577 2.738628,0.17239 0.895308,0.198593 1.761488,0.582901 2.861078,1.269405 l 0.751593,0.469242 -0.262458,0.395291 c -0.144353,0.21741 -0.282724,0.394974 -0.307493,0.394588 -0.02477,-3.7e-4 -0.261533,-0.13828 -0.526143,-0.30643 z m 6.908608,1.4729 c 1.182395,-1.764157 1.434789,-2.598632 1.505529,-4.97764 0.04732,-1.591391 -0.03658,-3.19109 -0.274706,-5.2379593 C 30.40869,7.8752765 30.344286,7.6873889 29.705431,6.7201418 29.335423,6.1599382 28.771368,5.625289 28.550359,5.625289 c -0.401568,0 -0.87371,0.5285992 -1.26753,1.419097 -0.596838,1.3495562 -0.5534,2.5716887 0.184272,5.184493 0.164158,0.581441 0.3773,1.290319 0.473648,1.575284 0.278186,0.82278 0.559682,3.016958 0.747794,5.828836 0.02383,0.356206 0.05363,0.647648 0.06622,0.647648 0.01259,0 0.274034,-0.374711 0.580987,-0.832691 z M 3.9160104,16.283731 c 0.629989,-4.091532 0.5848537,-3.848882 0.7159308,-3.848882 0.05783,0 0.1066163,-0.05829 0.1084152,-0.129529 0.0018,-0.07124 0.063738,-0.995529 0.1376428,-2.053971 L 5.0123712,8.326908 4.8281483,7.9568232 C 4.1841275,6.6630523 3.2558151,5.625289 2.7425166,5.625289 c -0.3607823,0 -1.0865496,0.8970142 -1.6002613,1.9778479 l -0.25405174,0.5345171 0.006348,2.278127 c 0.003491,1.252971 0.0323496,3.277357 0.0641299,4.498636 0.0532142,2.044961 0.0728615,2.277584 0.24851844,2.942451 0.229428,0.868392 0.5888518,1.577673 0.8742679,1.725268 0.2192568,0.113383 1.1813208,0.254923 1.2584423,0.185144 0.025385,-0.02297 0.2846305,-1.590565 0.5761003,-3.483549 z M 27.210486,15.090208 c -0.02544,-0.127217 -0.04626,-0.294876 -0.04626,-0.372576 0,-0.249707 -3.749107,-2.604059 -5.514263,-3.46283 C 18.606532,9.7741365 16.792406,9.4967616 13.642141,10.030431 11.334,10.421441 9.6066138,11.020113 6.4312912,12.529543 l -1.0074145,0.478887 -0.080654,0.543414 c -0.04436,0.298877 -0.070057,0.554011 -0.057105,0.566963 0.012952,0.01295 0.5141436,-0.249072 1.1137584,-0.582276 1.9816429,-1.101192 4.5379789,-2.085554 6.1122529,-2.35363 1.61396,-0.274834 2.588956,-0.327502 3.584996,-0.193654 3.281651,0.440988 4.240593,0.6317 5.286545,1.051378 1.163406,0.466803 3.425869,1.734483 5.150753,2.886016 0.325312,0.217178 0.620918,0.39487 0.656901,0.39487 0.03598,0 0.04461,-0.104087 0.01916,-0.231303 z"
       id="path16595" />
  </g>
</svg>
