<?xml version="1.0" encoding="UTF-8" standalone="no"?>
<!-- Created with Inkscape (http://www.inkscape.org/) -->

<svg
   version="1.1"
   id="svg16313"
   width="26.672489"
   height="26.200872"
   viewBox="0 0 26.672489 26.200872"
   xmlns="http://www.w3.org/2000/svg"
   xmlns:svg="http://www.w3.org/2000/svg">
  <defs
     id="defs16317" />
  <g
     id="g16319">
    <path
       style="fill:#000000;stroke-width:0.0524017"
       d="M 0.83842794,16.558951 V 6.9170302 H 0.41921397 0 L 1.3761013e-4,6.0917027 C 2.1329555e-4,5.6377726 0.01567259,4.7911545 0.0344916,4.2103293 L 0.06870797,3.1542833 1.1103234,3.1162495 2.1519389,3.0782158 2.1248023,2.4954397 C 2.1098772,2.1749129 2.0844508,1.4809644 2.0682992,0.95333188 l -0.029367,-0.95933181 5.4128483,0.03625762 c 2.9770665,0.01994169 5.4246385,0.04679365 5.4390495,0.059671 0.01441,0.01287736 0.03799,0.69162341 0.0524,1.50832451 0.01441,0.8167011 0.04393,1.5025919 0.06559,1.5242017 0.02166,0.02161 0.531528,0.050198 1.133032,0.063529 l 1.093645,0.024239 0.03222,0.84467 c 0.01772,0.4645685 0.04745,1.3103905 0.06606,1.8796044 l 0.03384,1.0349345 h -0.654285 -0.654286 l -0.03389,0.4009194 c -0.01864,0.2205055 -0.03389,0.6685404 -0.03389,0.9956331 V 8.960698 L 13.611354,8.9599801 C 13.402402,8.9595611 13.174871,8.9441272 13.10573,8.9256257 L 12.98002,8.8919877 13.01004,7.9392496 13.04006,6.986512 9.9699113,6.95177 C 8.2813315,6.9326643 5.7599811,6.9170302 4.3669127,6.9170302 H 1.8340611 v 9.1441048 9.144104 h 4.6375546 c 4.0342023,0 4.6375543,-0.01 4.6375543,-0.07663 0,-0.04215 0.419815,-0.430155 0.932922,-0.862245 l 0.932921,-0.785616 -0.06687,-0.434699 c -0.03678,-0.239085 -0.08279,-0.824364 -0.102249,-1.30062 -0.0683,-1.671864 0.158358,-2.38982 1.055583,-3.343576 0.641888,-0.682331 1.441948,-1.168276 2.362365,-1.434867 0.375593,-0.108787 0.515111,-0.119401 1.51415,-0.115195 1.076791,0.0045 1.128114,0.0098 2.388528,0.245745 2.894286,0.541769 3.38815,0.491419 5.542703,-0.565085 l 0.993757,-0.487298 -0.408874,1.213229 c -0.878626,2.607091 -1.787601,5.112598 -2.069801,5.705214 -0.371189,0.779492 -1.98334,2.251588 -3.02345,2.76079 -0.561025,0.274659 -0.916213,0.36295 -1.706877,0.42429 -0.589046,0.0457 -1.779001,0.0069 -2.475811,-0.08067 -0.732472,-0.09208 -1.709057,-0.252564 -1.746999,-0.287089 -0.03544,-0.03225 0.09823,-0.877925 0.147163,-0.93102 0.0075,-0.0081 0.42354,0.04431 0.924609,0.116469 1.869246,0.269191 3.234161,0.280515 4.03073,0.03344 0.887571,-0.275301 2.660131,-1.79896 3.008048,-2.585662 0.313072,-0.707911 1.625502,-4.381426 1.581179,-4.425749 -0.0127,-0.0127 -0.06638,10e-6 -0.119281,0.02824 -0.244132,0.130283 -0.978822,0.330414 -1.406235,0.38306 -0.822401,0.1013 -1.518687,0.02862 -4.03809,-0.421492 -1.656393,-0.295929 -2.675252,-0.227857 -3.612455,0.241359 -0.489322,0.244981 -0.782496,0.466532 -1.192544,0.901205 -0.403482,0.427712 -0.639643,0.881182 -0.726092,1.394218 -0.06768,0.401638 -0.03406,1.955731 0.04538,2.097676 0.03741,0.06685 0.17917,-0.02511 0.774396,-0.50237 1.062935,-0.85227 1.332191,-1.032043 1.976046,-1.319344 0.663511,-0.296072 2.56401,-0.941046 2.615633,-0.887669 0.0443,0.0458 0.272844,0.899215 0.247074,0.92259 -0.01071,0.0097 -0.231704,0.08168 -0.491093,0.159921 -0.753646,0.227324 -1.748012,0.597627 -2.189951,0.81554 -0.493933,0.24355 -1.437068,0.973308 -3.531143,2.73225 l -1.562042,1.312054 -0.248683,-0.280898 -0.248684,-0.280899 -5.77e-4,0.458516 -5.76e-4,0.458515 H 6.026204 0.83843109 V 16.558951 Z M 14.315089,5.0968179 c -0.0092,-0.4824163 -0.02753,-0.8878566 -0.04065,-0.9009785 -0.01312,-0.013122 -1.785916,-0.04567 -3.939543,-0.07233 C 8.1812725,4.0968499 6.4022898,4.0597013 6.3816047,4.0409572 6.3609191,4.022213 6.3587712,3.7974956 6.3768309,3.5415852 L 6.4096679,3.0762935 9.1917337,3.1142365 11.9738,3.1521795 11.95653,2.1134049 C 11.94703,1.5420789 11.93524,1.0718528 11.93033,1.068458 11.92543,1.065058 9.9315254,1.046142 7.4994592,1.02641 l -4.4219383,-0.0358752 0.038337,1.51464 0.038337,1.5146401 -0.1688,0.03376 C 2.8925539,4.072144 2.422078,4.087336 1.939892,4.087336 H 1.06319 L 1.0297841,4.4410478 C 1.0114109,4.6355893 0.9962106,5.0480822 0.99600571,5.3576989 l -3.7253e-4,0.5629394 3.41921392,0.013866 c 1.8805677,0.00763 4.8812227,0.019619 6.6681219,0.02665 l 3.248909,0.012784 z M 3.731551,21.584509 3.746725,21.091702 4.8471617,21.059742 c 0.6052401,-0.01758 1.4010917,-0.03526 1.7685589,-0.0393 l 0.6681223,-0.0073 V 15.989997 10.966894 L 6.9617455,10.933229 C 6.7845919,10.914713 5.947474,10.899563 5.1014834,10.899563 H 3.5633188 V 10.401746 9.9039296 h 1.1705708 c 0.643814,0 1.7049493,0.015552 2.3580784,0.03456 l 1.187508,0.03456 v 5.9839844 5.983983 l -0.6419214,0.0331 c -0.3530568,0.0182 -1.3797543,0.04887 -2.2815496,0.06815 l -1.639628,0.03505 z m 7.121386,-2.235165 c -0.168993,-0.655443 -0.384973,-2.005645 -0.475693,-2.973799 -0.0846,-0.90283 -0.06859,-1.524557 0.05139,-1.995985 0.303252,-1.191503 1.648766,-3.221381 3.365494,-5.077269 l 0.338399,-0.3658307 0.03686,0.7588438 c 0.04306,0.8863959 0.154908,1.7152129 0.290089,2.1495499 0.125873,0.404429 0.488421,0.904413 1.102534,1.520488 0.49556,0.497142 1.391811,1.264776 2.044972,1.751506 0.187336,0.139602 0.360435,0.271008 0.384663,0.292014 0.02423,0.02101 -0.08034,0.211733 -0.232382,0.423836 -0.152039,0.212103 -0.282241,0.393837 -0.289338,0.403854 -0.01928,0.02722 -0.804611,-0.575242 -1.482512,-1.137303 -1.153193,-0.956134 -2.083677,-1.990028 -2.351695,-2.613053 -0.124195,-0.288699 -0.273278,-0.817225 -0.273278,-0.968822 0,-0.05159 -0.01942,-0.09379 -0.04317,-0.09379 -0.05579,0 -0.87346,1.122271 -1.164464,1.598253 -0.334075,0.546431 -0.718495,1.376439 -0.788776,1.703057 -0.124451,0.578369 0.03107,2.310788 0.349702,3.895455 0.0744,0.370011 0.123756,0.68426 0.109684,0.698333 -0.03067,0.03067 -0.767802,0.224994 -0.858341,0.226274 -0.03492,4.72e-4 -0.08628,-0.08753 -0.114148,-0.195608 z"
       id="path16581" />
  </g>
</svg>
