<?xml version="1.0" encoding="UTF-8" standalone="no"?>
<!-- Created with Inkscape (http://www.inkscape.org/) -->

<svg
   version="1.1"
   id="svg15290"
   width="30.731707"
   height="36.585365"
   viewBox="0 0 30.731707 36.585365"
   xmlns="http://www.w3.org/2000/svg"
   xmlns:svg="http://www.w3.org/2000/svg">
  <defs
     id="defs15294" />
  <g
     id="g15296">
    <path
       style="fill:#000000;stroke-width:0.0731707"
       d="M 28.432919,36.481192 C 28.275293,36.422625 28.073978,36.29863 27.985551,36.205646 27.897124,36.112662 26.710288,34.719511 25.348138,33.109755 19.698985,26.433721 13.352831,19.071664 11.371086,16.895231 L 10.46508,15.900219 9.9703448,15.772209 C 8.8969719,15.494479 8.2169875,15.272334 7.9024389,15.096641 7.5855994,14.919669 1.1768823,8.5566181 0.40221729,7.649863 0.13027895,7.3315557 0.04711354,7.1722078 0.01796759,6.9136257 -0.03652752,6.4301464 0.30498135,5.7740094 0.89584097,5.2269776 1.4595091,4.7051204 1.8840021,4.5041377 2.3016393,4.5613813 2.6004087,4.6023322 2.6226487,4.5889969 3.7230897,3.7090669 L 4.8410217,2.8151508 4.861252,2.439619 C 4.8869266,1.963029 5.2196729,1.2481094 5.6311649,0.78542896 6.2459392,0.09417841 6.9886118,-0.15214201 7.6182504,0.12637709 8.0363941,0.311342 8.2160641,0.51830481 11.06574,4.0975609 c 0.900786,1.1314066 2.122247,2.3846575 2.248263,2.3067754 0.04193,-0.025916 0.07624,-0.1212 0.07624,-0.2117428 0,-0.3026608 0.151116,-0.4079786 0.615636,-0.4290566 l 0.432708,-0.019635 0.135346,0.5121951 c 0.07444,0.2817073 0.141667,0.7447117 0.149395,1.0288985 0.01229,0.4520507 -0.01243,0.5618888 -0.197582,0.8778254 -0.289208,0.493497 -0.831829,1.0047512 -1.31977,1.243478 -0.335311,0.1640524 -0.468962,0.1914132 -0.76421,0.1564449 l -0.357829,-0.042379 -0.992763,1.1743232 c -0.546019,0.645878 -0.977627,1.198812 -0.959129,1.228741 0.0185,0.02993 0.460505,0.07695 0.982239,0.104498 1.275092,0.06732 1.60528,0.173512 2.151382,0.691946 1.394244,1.323604 6.582891,7.631143 13.703186,16.658175 3.141602,3.982889 3.433456,4.361071 3.585717,4.646341 0.178288,0.334035 0.188425,1.184911 0.01787,1.5 -0.160616,0.296727 -0.602396,0.742188 -0.876766,0.88407 -0.320008,0.165483 -0.920102,0.200047 -1.262755,0.07273 z m 1.047306,-1.178861 c 0.170851,-0.194588 0.227092,-0.329209 0.227092,-0.543576 0,-0.260949 -0.146475,-0.471684 -1.740132,-2.503552 C 19.092876,20.940708 12.903579,13.434467 12.219512,13.156778 c -0.10061,-0.04084 -0.649184,-0.100855 -1.219054,-0.133364 -0.701189,-0.04 -1.1175566,-0.09775 -1.2880269,-0.178641 C 9.3310119,12.663778 7.9251658,11.353336 4.8392233,8.3022752 L 2.0443372,5.5389804 1.7721686,5.758059 C 1.4224334,6.0395738 1.0243902,6.5580564 1.0243902,6.7320992 c 0,0.1962567 5.279077,5.6329198 6.7811041,6.9835278 0.7325378,0.65869 0.5797624,0.591656 2.6598847,1.167095 0.243711,0.06742 0.528481,0.218078 0.716658,0.379151 0.73945,0.632941 7.857545,8.842118 15.269182,17.609685 2.209461,2.613673 2.275213,2.683348 2.535103,2.686343 0.215812,0.0025 0.310217,-0.04636 0.493903,-0.25557 z M 10.61664,9.7195607 11.062547,9.1952193 10.561762,8.7353764 C 10.286329,8.4824625 10.041012,8.2821357 10.016611,8.2902049 9.9922097,8.2982749 9.5476975,8.71132 9.0288058,9.2080827 l -0.94344,0.9032053 0.6144936,0.570112 0.6144937,0.570112 0.4281892,-0.503804 C 9.9780467,10.470614 10.37139,10.007949 10.61664,9.7195607 Z M 8.3529226,8.4742381 9.3005443,7.582622 8.8901055,7.1754574 8.4796667,6.7682925 7.5746816,7.719512 6.6696962,8.6707315 7.0089267,9.0182925 c 0.1865768,0.1911585 0.3520883,0.3475609 0.3678025,0.3475609 0.015715,0 0.4550019,-0.4012273 0.9761934,-0.8916153 z M 13.287263,8.0921405 C 13.814102,7.5653018 13.87176,7.4263828 13.532674,7.5008588 12.947583,7.6293664 11.739088,6.5692922 10.111667,4.4999999 9.1467153,3.2730488 8.5531638,2.5370113 7.7661819,1.5914634 7.3485563,1.0896922 7.2658086,1.0243902 7.0476159,1.0243902 c -0.4498899,0 -1.1879142,0.9194894 -1.1923504,1.4855251 -0.00192,0.2452284 0.3118105,0.5879096 2.5274405,2.7606516 2.760613,2.7071756 3.150478,3.0577812 3.530049,3.1745719 0.188838,0.058104 0.469867,0.1079371 0.624508,0.1107403 0.25085,0.00454 0.331714,-0.045453 0.75,-0.4637386 z M 6.8695072,7.0216473 7.7618889,6.067685 7.3445721,5.6862815 C 7.1150485,5.4765095 6.9244162,5.3064365 6.9209451,5.3083413 6.9174739,5.3102459 6.5062204,5.7321359 6.0070481,6.245874 L 5.0994622,7.1799433 5.4923535,7.5777767 c 0.2160902,0.2188082 0.4135645,0.3978329 0.4388318,0.3978329 0.025267,0 0.4475121,-0.4292832 0.9383219,-0.9539623 z M 5.0513745,5.7987804 C 5.3931963,5.4466462 5.7935146,5.0268292 5.9409707,4.8658535 L 6.2090728,4.5731706 5.7844678,4.123694 5.3598628,3.6742175 4.490907,4.3695836 C 4.0129813,4.7520349 3.5417596,5.1284755 3.4437478,5.2061181 L 3.2655445,5.3472865 3.8077702,5.8931554 c 0.2982242,0.3002278 0.5601998,0.5458688 0.5821679,0.5458688 0.021968,0 0.3196146,-0.2881097 0.6614364,-0.6402438 z M 19.690524,36.42869 c -2.430577,-0.03291 -4.433128,-0.07373 -4.450112,-0.09072 -0.01699,-0.01698 -0.0039,-2.594184 0.02899,-5.72711 l 0.05987,-5.696228 0.501997,-0.02182 0.501998,-0.02182 -0.05418,4.125705 -0.05418,4.125706 1.820478,0.04839 c 1.001264,0.02662 2.668345,0.04847 3.704626,0.04855 l 1.884146,1.58e-4 v 0.503295 0.503294 l -3.695122,-0.03852 -3.695122,-0.03852 v 0.63279 0.63279 h 1.561165 c 0.858641,0 2.998885,0.02183 4.756098,0.0485 l 3.194932,0.04851 v 0.500275 0.500275 l -0.82317,-0.01183 c -0.452744,-0.0065 -2.811826,-0.03876 -5.242403,-0.07167 z m 8.553327,-10.764056 c -2.8e-5,-1.660061 -0.02191,-5.611281 -0.04863,-8.780488 l -0.04858,-5.762195 H 26.88418 c -0.694355,0 -1.314546,-0.01999 -1.378203,-0.04441 -0.122931,-0.04717 -0.151039,-0.346165 -0.07043,-0.749197 l 0.04531,-0.226538 0.904353,-0.02041 0.904353,-0.02041 L 25.85288,8.9634254 C 25.062707,8.3597559 24.379388,7.8297854 24.334395,7.7857023 24.282579,7.7349342 23.575566,7.6861315 22.405796,7.6525776 l -1.846793,-0.052974 -1.380366,1.2306863 c -0.759201,0.6768768 -1.36612,1.2461881 -1.348709,1.2651361 0.01741,0.01895 1.131385,0.06954 2.475499,0.11244 1.344114,0.04289 2.461905,0.09605 2.483981,0.118127 0.02207,0.02207 0.01844,0.247747 -0.0081,0.501493 l -0.04822,0.461356 -1.214112,-0.0463 c -0.667762,-0.02547 -1.913807,-0.06797 -2.76899,-0.09446 l -1.554878,-0.04815 v 1.584181 1.584182 h -0.52379 -0.52379 l 0.04818,-1.438595 c 0.0265,-0.791228 0.04818,-1.724397 0.04818,-2.073708 V 10.12088 l 1.357933,-1.2139598 1.357934,-1.2139595 -0.0063,-3.3352388 c -0.0042,-2.2170564 0.01961,-3.38372755 0.07106,-3.47986782 0.09911,-0.18519368 0.441872,-0.36353787 0.951114,-0.49488163 0.562714,-0.14513566 3.705919,-0.2098414 4.575051,-0.0941816 0.723433,0.0962711 1.302122,0.310702 1.464628,0.542713 0.0897,0.12806158 0.106662,0.68985265 0.106662,3.53234105 0,2.3786552 -0.02368,3.3879531 -0.07992,3.4067009 -0.04396,0.014652 0.647507,0.582052 1.536586,1.2608883 l 1.616506,1.2342479 v 9.208624 9.208623 h -0.47561 -0.47561 z M 25.097561,4.0659063 c 0,-2.47499 -0.0092,-2.6686356 -0.128049,-2.7054052 C 24.392703,1.182099 22.51234,1.1255567 21.154121,1.2457727 19.848222,1.3613579 19.97561,1.2371501 19.97561,2.3948721 v 0.9887636 l 1.77439,-0.027184 1.77439,-0.027184 0.02164,0.4939024 0.02164,0.4939025 H 21.771636 19.97561 v 1.1341463 1.1341463 l 0.201219,0.00944 c 0.413384,0.019397 3.520387,0.1106 4.207317,0.123501 l 0.713415,0.013399 z"
       id="path15417" />
  </g>
</svg>
