<?xml version="1.0" encoding="UTF-8" standalone="no"?>
<!-- Created with Inkscape (http://www.inkscape.org/) -->

<svg
   version="1.1"
   id="svg16440"
   width="30.767624"
   height="31.331593"
   viewBox="0 0 30.767624 31.331593"
   xmlns="http://www.w3.org/2000/svg"
   xmlns:svg="http://www.w3.org/2000/svg">
  <defs
     id="defs16444" />
  <g
     id="g16446">
    <path
       style="fill:#000000;stroke-width:0.0626632"
       d="m 22.98128,31.268002 c -1.956119,-0.02295 -3.577529,-0.06268 -3.603134,-0.08828 -0.0256,-0.0256 -0.04655,-2.575011 -0.04655,-5.665353 0,-6.073571 -3.76e-4,-6.065985 0.333275,-6.457738 0.09242,-0.108505 0.349461,-0.288415 0.571209,-0.3998 0.221749,-0.111386 0.454511,-0.273016 0.51725,-0.359178 0.148544,-0.203999 0.280462,-0.851123 0.364223,-1.786688 0.03699,-0.413144 0.07942,-0.786419 0.09429,-0.8295 0.01818,-0.05267 0.171362,-0.07833 0.467652,-0.07833 h 0.440608 l 0.0013,-0.516971 c 0.0071,-2.722006 0.465953,-4.321426 1.368983,-4.771441 0.68432,-0.3410227 1.453388,-0.3986403 4.848998,-0.3632788 l 2.428198,0.025286 v 0.4946648 0.494665 h -1.723238 -1.723237 v 1.566579 1.56658 H 26.75718 26.193211 v 0.72927 0.729269 l 0.47822,-0.04333 0.47822,-0.04334 -0.03105,0.520332 c -0.04168,0.698476 0.05072,1.798816 0.177707,2.116187 0.118687,0.296629 0.275406,0.394264 0.808132,0.503462 0.732401,0.150127 1.049099,0.423608 1.132189,0.977692 0.05984,0.39906 -0.176605,10.787468 -0.261214,11.476515 l -0.0327,0.266319 -1.202426,-0.01093 c -0.661335,-0.006 -2.802887,-0.02971 -4.759006,-0.05266 z m 5.053056,-1.706644 c 0.06872,-1.353849 0.166157,-5.526192 0.181015,-7.751533 l 0.01441,-2.158844 -0.359194,-0.07242 C 26.656606,19.333785 26.232008,18.751458 26.148449,17.21671 l -0.03668,-0.673629 H 25.11855 24.125326 v 5.232376 5.232376 h -0.501305 -0.501306 v -5.201044 -5.201045 h -0.497466 -0.497465 l -0.03661,0.29765 c -0.13655,1.110215 -0.404409,1.951863 -0.708883,2.227408 -0.06284,0.05687 -0.310275,0.210427 -0.549844,0.341228 l -0.43558,0.23782 -0.03903,0.688156 c -0.05782,1.019649 -0.06115,9.698897 -0.0038,9.789271 0.03759,0.05918 0.658773,0.08168 2.615229,0.09472 1.411263,0.0094 3.11946,0.02383 3.795994,0.03205 l 1.230059,0.01494 z m -3.170665,-14.020603 0.331034,-2.85e-4 -0.01772,-0.704961 -0.01772,-0.704961 -1.018277,-0.01722 -1.018277,-0.01722 v 0.763084 0.763085 l 0.704961,-0.04062 c 0.387729,-0.02234 0.853926,-0.04075 1.035995,-0.04091 z m 1.454867,-3.549951 v -1.105802 l -0.736293,0.04274 c -0.970503,0.05633 -1.483433,0.148504 -1.677966,0.301524 -0.218149,0.171596 -0.432846,0.620438 -0.554433,1.159086 -0.177432,0.786055 -0.334891,0.708256 1.433444,0.708256 h 1.535248 z M 0.08656423,28.214099 C 0.05709884,26.637337 0.03343312,22.569713 0.03397375,19.174935 0.03502178,12.594083 0.1013148,10.196372 0.29340963,9.7915621 0.5318984,9.2889845 1.6334777,8.9723913 3.940894,8.7432784 4.47131,8.6906113 4.9228317,8.6475197 4.9442757,8.6475197 c 0.021444,0 0.028448,-0.5075718 0.015565,-1.1279374 L 4.9364166,6.391645 H 5.7893571 6.6422976 L 6.642423,5.2793734 C 6.6425483,4.0282483 6.6889473,3.8463238 7.0735971,3.5893716 7.3505696,3.4043495 7.6086868,3.3348953 8.3493086,3.2461036 8.8074323,3.19118 8.9664119,3.1484285 8.986654,3.074714 9.001487,3.0206971 9.032588,2.5474914 9.0557683,2.0231458 L 9.0979144,1.0697904 8.7944021,1.0979549 C 8.6274705,1.1134454 8.2148967,1.1433387 7.877572,1.1643843 7.1627843,1.2089799 6.9678222,1.3203219 6.8363912,1.7589994 L 6.7577427,2.0215052 6.4337157,1.9825767 C 6.2554727,1.961166 6.0351123,1.943403 5.9439977,1.9431034 5.7817864,1.9425701 5.7795479,1.9370103 5.8365558,1.6762402 6.0021097,0.91895105 6.4816161,0.38390572 7.1122715,0.25276484 7.6235969,0.14643794 9.3300194,0.06655154 12.046997,0.02174503 l 2.553525,-0.04211095 V 0.49112253 1.002611 l -1.832898,4.449e-4 c -1.008094,2.444e-4 -2.02062,0.018177 -2.250056,0.03985 L 10.10041,1.0823099 10.06136,1.8727475 C 10.03988,2.3074887 10.00734,2.7830289 9.989039,2.9295041 L 9.955767,3.1958227 h 0.308948 c 0.465844,0 1.367936,0.1738613 1.650778,0.3181564 0.160735,0.082 0.281323,0.2012926 0.336167,0.332553 0.06451,0.1544019 0.218314,1.9081675 0.218314,2.4894011 0,0.030642 0.197389,0.055712 0.438642,0.055712 h 0.438642 v 1.0858352 1.0858352 l 1.049609,0.076271 c 2.316771,0.1683503 3.388628,0.423919 3.69662,0.8814053 0.176725,0.2625055 0.224864,4.5598121 0.145347,12.9750921 -0.03761,3.980679 -0.06797,7.540731 -0.06745,7.911227 l 9.4e-4,0.673629 H 9.1562306 0.14013768 Z M 17.205242,27.211489 c 0.02769,-1.576763 0.05217,-6.06258 0.0544,-9.968483 0.0039,-6.791384 -9.09e-4,-7.105277 -0.109704,-7.184845 C 16.989783,9.9410288 16.119164,9.7927069 14.94517,9.6825476 13.793055,9.574441 10.26565,9.4481659 10.204476,9.5128387 c -0.02253,0.023813 -0.07244,0.7482583 -0.110919,1.6098773 -0.03848,0.861618 -0.08274,1.684809 -0.098348,1.829311 l -0.028382,0.262733 0.29596,0.04103 c 1.89867,0.263207 3.344113,0.935377 4.586111,2.132667 1.948497,1.878356 2.515591,4.457155 1.510311,6.867969 -0.402536,0.965342 -1.271847,2.055407 -2.194128,2.751309 -0.863335,0.651424 -2.357047,1.283867 -3.4004,1.439741 -0.8203112,0.122552 -0.738571,0.04762 -0.738571,0.677041 0,0.304115 -0.01849,0.896852 -0.041094,1.317193 l -0.041093,0.764257 -0.475878,-0.01813 -0.4758774,-0.01813 0.022801,-1.300261 0.022802,-1.300261 -0.242123,-2.51e-4 C 8.6624798,26.568815 8.298898,26.527389 7.9876875,26.476912 4.7789527,25.95647 2.3853284,23.818306 1.8125711,20.960836 c -0.098021,-0.489027 -0.0987,-1.652222 -0.00124,-2.130549 0.2731896,-1.34083 0.8532722,-2.401815 1.8500648,-3.383812 1.2838128,-1.264756 2.7840705,-1.957833 4.7354735,-2.187656 l 0.5953003,-0.07011 0.072256,-1.408976 c 0.039741,-0.774936 0.074989,-1.599315 0.078329,-1.8319522 l 0.00607,-0.4229765 -0.9556136,3.133e-4 C 5.7230147,9.525951 2.7765995,9.7942428 1.558832,10.129225 l -0.3523951,0.09694 -0.03734,0.322946 c -0.020537,0.177629 -0.070179,1.408594 -0.1103147,2.735487 -0.0734615,2.428633 -0.039281,13.683867 0.048002,15.806789 l 0.040578,0.986945 H 9.1511317 17.154902 Z M 10.497503,25.41171 c 3.405711,-0.552391 5.766272,-3.442105 5.205594,-6.372503 -0.220635,-1.153154 -0.631694,-1.901905 -1.542363,-2.809442 -0.686108,-0.683747 -1.152636,-1.00489 -2.000259,-1.376914 -0.525548,-0.230665 -1.458067,-0.480109 -1.915044,-0.512266 l -0.3133161,-0.02205 -0.018529,0.422977 -0.018529,0.422976 h 0.6533131 0.653314 l 0.04172,0.736292 c 0.02295,0.404961 0.0571,0.851953 0.0759,0.993315 l 0.03418,0.257022 1.096119,0.03542 c 0.602865,0.01948 1.114912,0.05415 1.137882,0.07705 0.0463,0.04615 0.169557,3.903661 0.126118,3.9471 -0.01501,0.015 -0.54402,0.05525 -1.175588,0.08943 -0.631568,0.03418 -1.156486,0.07052 -1.166484,0.08076 -0.01,0.01024 -0.03635,0.413389 -0.05855,0.895896 -0.05982,1.299749 0.06468,1.159269 -1.027357,1.159269 -0.5107902,0 -1.4408008,-0.01855 -2.0666914,-0.04122 L 7.0809399,23.353591 V 22.351 21.348409 l -1.0966057,0.03966 -1.0966057,0.03966 V 19.267392 17.10705 h 1.0966057 1.0966057 v -0.775457 c 0,-0.426501 0.017624,-0.863577 0.039165,-0.97128 l 0.039165,-0.195822 h 0.8621515 0.862152 l 0.029098,-0.422976 c 0.016004,-0.232638 0.017891,-0.436124 0.00419,-0.452192 -0.013697,-0.01607 -0.3407386,0.01726 -0.7267588,0.07406 -4.5856954,0.674778 -6.8722457,5.171276 -4.3616279,8.577135 0.9130985,1.238694 2.4637674,2.155112 4.1671621,2.462721 0.6554043,0.118357 1.8004631,0.122233 2.5018632,0.0085 z m -0.193534,-3.119282 c 0.01628,-0.07755 0.04773,-0.525471 0.06989,-0.995391 l 0.0403,-0.854398 0.228953,-0.03786 c 0.125925,-0.02082 0.386764,-0.03817 0.579642,-0.03855 0.192877,-3.76e-4 0.608804,-0.01901 0.924282,-0.0414 l 0.573595,-0.04072 -3.14e-4,-0.350929 c -1.25e-4,-0.193012 -0.01856,-0.668163 -0.04091,-1.055891 l -0.04062,-0.704961 h -1.111001 -1.111001 l -0.03716,-0.454308 c -0.02044,-0.24987 -0.05529,-0.701045 -0.07744,-1.002611 l -0.04027,-0.548303 H 9.1817878 8.1016643 l -0.044901,0.923558 c -0.024695,0.507957 -0.055117,0.933774 -0.067603,0.946261 -0.012487,0.01249 -0.4898362,0.03813 -1.0607762,0.05699 l -1.0380451,0.03429 v 1.153225 1.153226 l 1.0966058,-0.04395 1.0966057,-0.04395 v 1.043335 1.043336 h 1.095412 c 1.0854385,0 1.0956815,-0.0013 1.1250065,-0.140993 z M 9.9477807,8.5224477 12.344648,8.5221933 V 7.9582246 7.3942559 H 9.1488251 5.9530026 V 7.9992264 8.6041968 L 6.7519582,8.5634495 C 7.1913838,8.541038 8.6295039,8.5225874 9.9477807,8.5224477 Z M 11.44133,5.5926894 C 11.377532,4.3527258 11.373301,4.3363467 11.101857,4.2786277 10.708517,4.1949891 8.2104645,4.2200472 7.9112271,4.310633 L 7.6449086,4.3912536 V 5.3914493 6.391645 h 1.9187643 1.9187641 z"
       id="path16574" />
  </g>
</svg>
