<?xml version="1.0" encoding="UTF-8" standalone="no"?>
<!-- Created with Inkscape (http://www.inkscape.org/) -->

<svg
   version="1.1"
   id="svg16186"
   width="76.652824"
   height="76.039604"
   viewBox="0 0 76.652824 76.039604"
   xmlns="http://www.w3.org/2000/svg"
   xmlns:svg="http://www.w3.org/2000/svg">
  <defs
     id="defs16190" />
  <g
     id="g16192">
    <path
       style="fill:#000000;stroke-width:0.153306"
       d="M 54.367513,75.876315 C 42.626738,74.24969 34.96884,63.066772 37.868799,51.783047 c 0.167369,-0.651232 0.304307,-1.229629 0.304307,-1.28533 0,-0.0557 -2.000638,-0.05063 -4.445863,0.01125 l -4.445864,0.112529 V 49.30308 47.984663 h 4.9789 4.978898 l 0.257793,-0.42159 c 1.375418,-2.249341 1.990865,-3.05538 3.423877,-4.484191 2.40605,-2.398994 4.890153,-3.926823 7.936336,-4.881184 2.506167,-0.785176 3.116992,-0.868743 6.249171,-0.854952 2.737376,0.01205 3.018988,0.04098 4.675822,0.480281 3.65452,0.968974 6.636294,2.668774 9.202057,5.245754 4.842188,4.86336 6.724143,11.701007 5.039927,18.311401 -1.838257,7.214985 -7.716409,12.722592 -15.238471,14.277869 -1.466127,0.30314 -4.950309,0.421624 -6.418176,0.218258 z m 6.997266,-2.951137 c 6.368753,-1.68286 11.241958,-6.863755 12.464042,-13.251012 0.288717,-1.508988 0.278246,-4.591571 -0.02095,-6.168825 -0.271702,-1.4323 -0.814521,-3.028541 -1.486361,-4.370879 -0.632369,-1.263476 -1.963196,-3.165323 -2.167333,-3.097277 -0.255547,0.08518 -24.133012,23.311066 -24.148738,23.489754 -0.0214,0.243195 2.220772,1.685557 3.668377,2.35982 1.273648,0.593238 3.014707,1.143455 4.430724,1.400219 0.386229,0.07003 1.840528,0.106396 3.231776,0.0808 2.132664,-0.03923 2.764721,-0.108674 4.028467,-0.442603 z M 57.379006,54.826109 C 68.154667,44.340589 68.381676,44.107646 68.113356,43.811158 67.962594,43.644566 67.281379,43.137074 66.599547,42.6834 60.752132,38.792663 53.128897,38.787689 47.334545,42.67083 c -1.623812,1.088212 -2.610078,1.965328 -3.678922,3.271774 -5.114142,6.251004 -5.176315,14.916401 -0.151931,21.17584 l 0.530128,0.660441 1.16836,-1.120358 c 0.642597,-0.616197 6.12217,-5.940784 12.176826,-11.832415 z m -14.913342,1.303842 c 0,-4.376303 2.046073,-8.206503 5.902268,-11.048909 2.348345,-1.730966 3.818149,-2.161291 8.163526,-2.390087 l 1.877994,-0.09888 v 1.316547 1.316548 h -1.30914 c -1.873208,0 -4.127563,0.280121 -5.059019,0.628625 -1.69809,0.635337 -4.53477,3.075229 -5.562208,4.78418 -0.792662,1.318449 -1.252024,2.839765 -1.447231,4.792954 l -0.175109,1.752082 h -1.19554 -1.195541 z M 19.111232,72.888777 C 8.6693603,72.611191 0.09385012,72.351915 0.05454263,72.312607 0.01523514,72.2733 0.03240195,56.066269 0.09269111,36.296984 L 0.20230776,0.35282874 17.616324,0.25257997 C 27.194033,0.19744313 38.382053,0.10792875 42.47859,0.05365912 l 7.448249,-0.09867207 0.102054,10.62589895 c 0.05613,5.844243 0.102054,14.088261 0.102054,18.320037 v 7.694138 l -1.175155,0.09933 c -0.646335,0.05464 -1.208106,0.06639 -1.248379,0.02611 -0.04027,-0.04027 -0.107809,-7.741065 -0.150079,-17.112868 L 47.480482,2.5679968 29.834141,2.6644929 C 20.128653,2.7175658 10.077498,2.8031027 7.4982407,2.8545747 L 2.8086824,2.9481603 2.7076569,8.7944251 C 2.652093,12.009871 2.6065334,27.068431 2.6064137,42.257894 l -2.177e-4,27.617202 2.3379111,0.09595 c 1.2858512,0.05277 9.8575529,0.284244 19.0482269,0.514383 l 16.710316,0.418436 0.04453,1.264771 0.04453,1.264772 -1.347624,-0.01996 C 38.702885,73.402466 29.553104,73.166362 19.111232,72.888777 Z M 22.436889,60.05749 c 0.05457,-4.405622 0.17348,-17.909933 0.264234,-30.009582 0.09075,-12.099649 0.194907,-22.0930999 0.231453,-22.2076694 0.05038,-0.157953 0.341513,-0.1944179 1.204334,-0.1508474 0.625838,0.031603 1.169742,0.090848 1.208677,0.1316554 0.05974,0.062608 -0.427883,60.0969484 -0.489032,60.2083374 -0.01158,0.02108 -0.583057,0.03833 -1.269967,0.03833 H 22.33766 Z m 14.169685,6.085783 c -2.928618,-0.709993 -4.872305,-2.903032 -4.872305,-5.497364 0,-1.640596 0.684093,-2.978606 2.064816,-4.038555 1.03226,-0.792443 1.048265,-0.788182 1.582519,0.421385 l 0.479342,1.085244 -0.747305,0.722631 c -0.538264,0.520491 -0.777916,0.887585 -0.85673,1.312316 -0.302948,1.632595 1.114731,3.241952 3.141294,3.566012 l 0.621596,0.0994 v 1.283504 c 0,1.45923 0.07248,1.405613 -1.413227,1.045429 z M 11.154918,66.003265 C 9.0306835,65.195962 7.6733311,63.053349 7.8565812,60.796763 c 0.145782,-1.795197 1.1764672,-3.286753 2.8356018,-4.103541 0.882142,-0.434279 1.179478,-0.502665 2.185491,-0.502665 1.006013,0 1.30335,0.06839 2.185492,0.502665 1.112162,0.547514 1.876247,1.318365 2.440283,2.461892 0.286049,0.579937 0.350869,0.964676 0.352202,2.090494 0.0014,1.213171 -0.04973,1.477556 -0.423781,2.189841 -0.54123,1.030631 -1.382142,1.871764 -2.343082,2.343702 -0.927621,0.455572 -3.012332,0.57434 -3.93387,0.224114 z m 3.280359,-2.364031 c 2.15722,-1.368069 1.604457,-4.553632 -0.906054,-5.221558 -1.253078,-0.333383 -2.723853,0.378694 -3.271064,1.58369 -0.8875947,1.954544 0.477152,4.080397 2.619515,4.080397 0.68447,0 1.002104,-0.09024 1.557603,-0.442529 z M 5.0590864,49.429201 v -1.291226 h 5.4185016 c 2.980176,0 6.142651,-0.04431 7.027722,-0.09846 l 1.609218,-0.09846 0.101579,1.201676 c 0.05587,0.660921 0.04957,1.248627 -0.01398,1.306012 -0.06356,0.05739 -3.271747,0.141992 -7.1293,0.188013 l -7.0137335,0.08367 V 49.429201 Z M 10.098269,42.848812 C 6.3394748,41.639404 5.2458459,36.971947 8.0964922,34.3055 10.02887,32.497987 13.128134,32.518406 15.01659,34.35109 c 1.412943,1.371214 1.921848,3.580644 1.240571,5.385985 -0.422112,1.11857 -1.479675,2.294998 -2.521196,2.804566 -1.028387,0.503143 -2.612806,0.636933 -3.637696,0.307171 z m 3.049199,-2.629716 c 0.747902,-0.5975 1.109424,-1.332151 1.109719,-2.255074 4.91e-4,-1.557791 -1.175475,-2.704252 -2.772733,-2.703148 -2.9128076,0.002 -3.7896966,4.000406 -1.148372,5.236295 0.920917,0.430901 2.065676,0.317674 2.811386,-0.278073 z m 20.07915,2.549065 c -1.851664,-0.466342 -3.22865,-1.873826 -3.721796,-3.804223 -0.572907,-2.24262 0.54658,-4.594695 2.720783,-5.716441 0.984962,-0.508176 2.833201,-0.574737 3.977078,-0.143225 1.097496,0.414015 2.085472,1.280618 2.658042,2.3315 0.371317,0.681507 0.458122,1.045476 0.510851,2.141988 0.05711,1.187501 0.021,1.41574 -0.35737,2.258853 -0.486954,1.085078 -1.574506,2.189403 -2.605111,2.645288 -0.797271,0.35267 -2.360482,0.493279 -3.182477,0.28626 z m 2.501766,-2.529651 c 1.26567,-0.654503 1.767134,-2.513299 1.021353,-3.785878 -0.732767,-1.250373 -2.324902,-1.707755 -3.628913,-1.042497 -1.657484,0.845585 -1.953145,3.132396 -0.571985,4.424076 0.823686,0.770326 2.146466,0.938525 3.179545,0.404299 z M 28.208239,24.188483 v -1.301136 l 6.017247,-0.102541 c 3.309486,-0.0564 6.655381,-0.144917 7.435324,-0.196711 l 1.418077,-0.09417 v 1.303621 1.303619 l -4.790801,0.0992 c -2.634941,0.05456 -5.980837,0.141961 -7.435324,0.194227 l -2.644523,0.09503 z M 5.212392,23.533949 V 22.22932 h 7.134913 7.134912 l -0.04453,1.264771 -0.04453,1.264772 -7.090386,0.03986 -7.090386,0.03986 z M 33.939215,17.340428 C 32.347248,16.930196 30.922804,15.658872 30.347756,14.135031 29.67868,12.362018 30.15801,10.154501 31.504651,8.8070425 32.550747,7.7603115 33.404999,7.4352 35.106993,7.4360608 c 1.279275,6.439e-4 1.550379,0.050253 2.229088,0.4078705 0.94508,0.4979721 1.980701,1.5933685 2.414551,2.5539217 0.493589,1.092813 0.466672,2.89706 -0.05997,4.019874 -0.563927,1.202304 -1.240588,1.905886 -2.365621,2.459738 -1.03724,0.510632 -2.450782,0.703914 -3.385826,0.462963 z m 2.341382,-2.568007 c 1.063811,-0.504811 1.684073,-1.945032 1.372431,-3.186719 -0.271218,-1.080615 -1.840027,-2.064083 -2.961012,-1.8562233 -2.122693,0.3936033 -2.994292,2.7546073 -1.619891,4.3879903 0.746693,0.887394 2.125504,1.168854 3.208472,0.654952 z M 10.537382,17.165706 C 9.0358728,16.78862 7.7417706,15.70883 7.0790614,14.280109 6.7477555,13.565853 6.6788688,13.1995 6.6856365,12.187799 6.6954828,10.715873 7.0288585,9.8559042 7.996626,8.8060004 8.9567792,7.7643574 9.9279401,7.3205507 11.421271,7.2409869 c 1.676514,-0.089324 2.759236,0.3145875 3.856806,1.4387878 1.097969,1.1246086 1.482903,2.1740943 1.399842,3.8165353 -0.07546,1.492053 -0.56602,2.51686 -1.687425,3.5251 -1.123011,1.009683 -3.033896,1.500715 -4.453112,1.144296 z m 1.973721,-2.214801 C 13.83097,14.558947 14.64359,13.37914 14.530767,12.018645 14.390709,10.329728 13.099172,9.2444557 11.397279,9.3855898 9.3593452,9.5545912 8.1846596,11.813437 9.1986311,13.613451 c 0.4758251,0.84469 1.2464619,1.329053 2.4630999,1.548116 0.04793,0.0086 0.430152,-0.08617 0.849372,-0.210662 z"
       id="path16588" />
  </g>
</svg>
