<?xml version="1.0" encoding="UTF-8" standalone="no"?>
<!-- Created with Inkscape (http://www.inkscape.org/) -->

<svg
   version="1.1"
   id="svg15805"
   width="27.309868"
   height="27.697634"
   viewBox="0 0 27.309868 27.697634"
   xmlns="http://www.w3.org/2000/svg"
   xmlns:svg="http://www.w3.org/2000/svg">
  <defs
     id="defs15809" />
  <g
     id="g15811">
    <path
       style="fill:#000000;stroke-width:0.0553953"
       d="M 2.9636469,27.500074 C 2.4444407,27.230488 2.1218982,26.987274 1.7479818,26.5834 1.4211222,26.230352 1.0872184,25.640074 1.0241253,25.303759 0.97556942,25.044934 1.1436818,24.656458 1.3757564,24.491206 1.5709276,24.352232 2.0295757,24.18418 2.3712288,24.126458 c 0.2252287,-0.03805 0.2323489,-0.04571 0.2323489,-0.249802 0,-0.199092 -0.011198,-0.212647 -0.2058181,-0.249158 -0.1132,-0.02124 -0.2724813,-0.07308 -0.3539585,-0.115219 C 1.8143689,23.393636 1.4192936,22.972605 1.1322801,22.540876 L 0.87164302,22.148822 0.91298794,12.708571 0.95433281,3.2683208 H 0.46889957 -0.01653366 L 0.0235588,1.7315904 C 0.04560964,0.88638871 0.06802562,0.19166745 0.07337208,0.18776544 0.07871853,0.18386343 2.7193743,0.13985694 5.9414961,0.08997323 11.789852,-5.6887561e-4 11.800445,-5.328914e-4 12.118069,0.11095416 c 0.588911,0.20671008 1.058757,0.61566214 1.229095,1.06980154 0.08791,0.2343869 0.07038,0.8142268 -0.03386,1.1201797 -0.117338,0.3443691 -0.514248,0.7486771 -0.867369,0.8835351 l -0.262947,0.1004203 0.0387,9.0416982 0.0387,9.041698 -0.207819,0.381061 c -0.29856,0.547447 -0.774444,1.150727 -1.091065,1.383148 -0.315437,0.231552 -0.677594,0.355113 -1.0406929,0.355063 l -0.2543235,-3.4e-5 0.019195,0.277011 0.019196,0.27701 0.5070594,0.0042 c 0.573648,0.0048 0.795596,0.06712 1.031499,0.289773 0.205956,0.194389 0.246538,0.407453 0.16938,0.889287 -0.115382,0.720543 -0.411532,1.275367 -0.95444,1.788104 -0.5510869,0.52046 -0.424094,0.496723 -3.0353974,0.567374 -1.2643971,0.03421 -2.6977497,0.07545 -3.1852281,0.09166 l -0.8863243,0.02946 -0.3877669,-0.201339 z m 4.4593193,-0.91542 2.0773226,-0.05859 0.1834115,-0.13975 C 9.9297589,26.19883 10.225489,25.78644 10.32947,25.4858 c 0.160096,-0.462883 0.551933,-0.421293 -3.8066598,-0.404053 -3.5147925,0.0139 -4.4731852,0.04752 -4.4731852,0.156928 0,0.01429 0.05351,0.130865 0.1189113,0.259062 0.1615224,0.31661 0.6722463,0.803746 1.0738343,1.024239 l 0.3306243,0.18153 0.8863243,-0.03014 c 0.4874784,-0.01657 1.8211195,-0.0565 2.963647,-0.08872 z m 1.2740912,-2.766427 c 0,-0.210545 -0.022892,-0.2875 -0.093595,-0.314631 -0.051478,-0.01975 -0.780618,-0.0062 -1.6203117,0.03003 -0.8396942,0.03627 -1.9442582,0.08201 -2.4545871,0.10164 l -0.9278708,0.03569 v 0.212992 0.212991 h 2.5481824 2.5481825 z m -1.8557416,-1.27168 c 0.4874784,-0.02852 1.4415262,-0.0528 2.1201066,-0.05396 l 1.2337826,-0.0021 0.249897,-0.230347 c 0.137442,-0.12669 0.377257,-0.419593 0.532922,-0.650894 l 0.283025,-0.420551 -0.03606,-8.914475 C 11.205163,7.3712539 11.17784,3.3486417 11.164275,3.3350769 11.150711,3.3215121 9.0735768,3.2972499 6.5484233,3.2811609 L 1.9572351,3.2519084 1.9203371,9.667447 c -0.020294,3.528546 -0.036898,7.724 -0.036898,9.323231 v 2.907693 l 0.1470071,0.199112 c 0.080854,0.109512 0.2241892,0.283203 0.3185228,0.385982 l 0.1715157,0.186869 1.7172533,-0.03597 c 0.9444894,-0.01978 2.1160993,-0.0593 2.6035777,-0.08782 z M 12.244685,2.1283107 c 0.1349,-0.1349429 0.171215,-0.2195568 0.173773,-0.404895 0.0039,-0.2801168 -0.126621,-0.4432205 -0.491983,-0.6149608 L 11.680049,0.99262105 6.385323,1.0773826 C 3.4732237,1.1240014 1.0769052,1.1758357 1.0601709,1.19257 1.0434366,1.2093043 1.0194382,1.458652 1.006841,1.746676 l -0.022904,0.5236799 3.4272468,0.015627 c 1.8849861,0.00859 4.3802832,0.015018 5.5451044,0.014274 l 2.1178578,-0.00135 z m 0.274646,25.0274973 c 0,-0.05427 -0.09971,-1.206404 -0.221581,-2.560309 -0.12187,-1.353905 -0.221581,-2.518508 -0.221581,-2.588007 0,-0.10973 0.02815,-0.126361 0.213849,-0.126361 0.117617,0 0.329504,-0.01585 0.47086,-0.03523 l 0.25701,-0.03523 v -1.488142 -1.488143 h 0.28071 c 0.241731,0 0.276583,-0.01346 0.250996,-0.09694 -0.33501,-1.093018 -0.456446,-2.606192 -0.247972,-3.089892 0.187656,-0.435397 0.52084,-0.690835 0.901101,-0.690835 0.241687,0 0.341252,-0.09852 0.38668,-0.382604 0.07301,-0.456567 0.528995,-0.769222 1.014765,-0.69579 0.195029,0.02948 0.22051,0.01723 0.333144,-0.160118 0.162831,-0.256397 0.413629,-0.438576 0.841812,-0.611493 1.001823,-0.404576 2.165356,-0.406275 3.043068,-0.0044 0.38762,0.177459 0.51846,0.298223 0.767792,0.708667 l 0.195882,0.322459 0.22911,-0.04535 c 0.12601,-0.02494 0.430486,-0.04535 0.676612,-0.04535 0.407226,0 0.466231,0.01429 0.655611,0.158753 0.267232,0.203856 0.402243,0.429359 0.479306,0.800567 0.05566,0.268101 0.07352,0.293792 0.181378,0.260932 0.0658,-0.02005 0.349355,-0.05065 0.630115,-0.068 0.476534,-0.02945 0.530933,-0.02154 0.818235,0.119027 0.586785,0.287088 0.822585,0.879323 0.828206,2.08013 0.0019,0.41131 -0.0074,0.909868 -0.02074,1.107906 l -0.02424,0.360069 0.370462,0.01638 0.370462,0.01638 v 1.354653 1.354653 h 0.667253 0.667253 l -0.03024,0.180034 c -0.01663,0.09902 -0.167328,1.276861 -0.334876,2.617427 -0.167548,1.340565 -0.319291,2.530871 -0.337206,2.645124 l -0.03257,0.207735 h -7.03033 c -6.705364,0 -7.03033,-0.0046 -7.03033,-0.09866 z m 13.201148,-1.02309 c 0.0616,-0.264004 0.445274,-3.475332 0.41842,-3.502187 -0.01559,-0.01559 -1.945921,0.0077 -4.289624,0.05181 -2.343702,0.04409 -5.266181,0.09749 -6.494396,0.118674 l -2.23312,0.03852 0.02976,0.199392 c 0.01637,0.109665 0.08194,0.822588 0.145704,1.584273 0.06377,0.761685 0.127189,1.440969 0.140938,1.509521 l 0.025,0.124639 h 6.114117 6.114116 z m -4.739521,-4.426726 4.002309,-0.06709 V 20.77166 19.904418 l -1.038662,-0.0363 c -0.571263,-0.01996 -3.039123,-0.03637 -5.484131,-0.03646 l -4.445471,-1.57e-4 v 1.005877 1.005876 l 1.481824,-0.03509 c 0.815003,-0.0193 3.282862,-0.06528 5.484131,-0.102178 z m 3.246005,-2.897207 c 0.01709,-0.04455 0.04718,-0.424701 0.06685,-0.844778 0.03656,-0.780676 -0.01523,-1.322439 -0.153746,-1.60838 -0.07113,-0.146842 -0.08927,-0.152362 -0.487815,-0.148506 -0.379174,0.0037 -0.876019,0.135226 -1.689227,0.447283 -0.06962,0.02671 -0.08201,-0.07531 -0.08265,-0.680791 -4.43e-4,-0.39172 -0.0166,-0.771429 -0.03597,-0.843799 -0.033,-0.12329 -0.05477,-0.129804 -0.345464,-0.103348 -0.170635,0.01553 -0.537736,0.113736 -0.815779,0.218238 l -0.505532,0.190002 -0.0958,-0.308236 c -0.167608,-0.539264 -0.454003,-1.027019 -0.660991,-1.125724 -0.695535,-0.331678 -2.177711,-0.207409 -2.603394,0.218275 -0.07304,0.07304 -0.212786,0.331223 -0.310544,0.573739 -0.09776,0.242516 -0.188116,0.440939 -0.200793,0.440939 -0.01268,0 -0.171197,-0.07478 -0.352263,-0.166186 -0.181067,-0.0914 -0.358294,-0.166186 -0.393837,-0.166186 -0.06273,0 -0.04937,0.300152 0.04353,0.977927 l 0.03154,0.23009 -0.353019,-0.0723 c -0.697829,-0.142929 -0.910713,-0.15466 -1.009729,-0.05564 -0.181172,0.181172 -0.09592,1.175448 0.199504,2.326736 l 0.127931,0.498557 3.626834,0.0283 c 1.99476,0.01556 4.153885,0.03426 4.798058,0.04155 0.985087,0.01114 1.176163,3.87e-4 1.202306,-0.06775 z"
       id="path16609" />
  </g>
</svg>
