<?xml version="1.0" encoding="UTF-8" standalone="no"?>
<!-- Created with Inkscape (http://www.inkscape.org/) -->

<svg
   version="1.1"
   id="svg15551"
   width="77.102364"
   height="75.590553"
   viewBox="0 0 77.102364 75.590553"
   xmlns="http://www.w3.org/2000/svg"
   xmlns:svg="http://www.w3.org/2000/svg">
  <defs
     id="defs15555" />
  <g
     id="g15557">
    <path
       style="fill:#000000;stroke-width:0.755906"
       d="m 0,64.629923 v -10.96063 h 10.96063 10.96063 v 10.96063 10.96063 H 10.96063 0 Z m 27.212599,0 v -10.96063 h 11.338583 11.338583 v 10.96063 10.96063 H 38.551182 27.212599 Z m 27.968505,0 v -10.96063 h 10.96063 10.96063 v 10.96063 10.96063 H 66.141734 55.181104 Z M 0,37.795276 V 26.456694 H 10.96063 21.92126 V 37.795276 49.133859 H 10.96063 0 Z M 27.551838,48.171691 C 27.339967,47.619564 27.262003,42.592858 27.378585,37.001235 l 0.211967,-10.166589 h 10.96063 10.96063 v 10.96063 10.960631 L 38.724436,48.965733 C 30.303952,49.129521 27.852537,48.955299 27.551838,48.171691 Z M 55.181104,37.795276 V 26.456694 h 10.96063 10.96063 V 37.795276 49.133859 H 66.141734 55.181104 Z M 0,10.96063 V 0 H 10.96063 21.92126 V 10.96063 21.92126 H 10.96063 0 Z m 27.212599,0 V 0 H 38.551182 49.889765 V 10.96063 21.92126 H 38.551182 27.212599 Z m 27.968505,0 V 0 h 10.96063 10.96063 v 10.96063 10.96063 h -10.96063 -10.96063 z"
       id="path16616" />
  </g>
</svg>
